#!OML:ASF H:\Not Pregnant\Project 1\Capture day 1\Session 1\non-pregnant.ASF
:FULLY-SPECIFIED
:DEGREES
504
root 18.0547 15.2193 33.5978 354.835 -125.971 -345.094
lowerback 2.34553 -0.113631 10.5889
upperback -5.21693 0.347395 1.73128
thorax -6.79986 -0.423456 -4.11216
lowerneck 4.67531 -1.85877 -28.198
upperneck 9.79807 -7.93426 35.5098
head 4.48396 -4.93197 18.1766
rclavicle 8.41139e-014 2.73329e-014
rhumerus -60.059 24.1574 -101.765
rradius 112.469
rwrist -14.3338
rhand -14.7488 -14.2367
rfingers 7.12502
rthumb 11.407 -43.9065
lclavicle 8.41139e-014 2.73329e-014
lhumerus -42.6888 -18.5954 97.6018
lradius 56.4971
lwrist 46.3578
lhand -23.5716 -24.857
lfingers 7.12502
lthumb 2.89111 5.10316
rfemur -13.0645 -5.65608 30.4432
rtibia 33.7808
rfoot -28.7624 10.0483
rtoes -16.1763
lfemur -45.003 3.86238 12.9648
ltibia 40.0378
lfoot 22.9207 6.46477
ltoes 6.339
505
root 18.0371 15.2192 33.6025 355.392 -126.618 -345.583
lowerback 2.18567 -0.261818 10.5274
upperback -5.25861 0.122045 1.71828
thorax -6.78522 -0.534112 -4.07297
lowerneck 4.17907 -1.68212 -28.0687
upperneck 10.1899 -7.60753 35.3503
head 4.54881 -4.72227 18.0876
rclavicle -1.4661e-013 -2.94201e-014
rhumerus -60.807 23.7852 -101.386
rradius 113.21
rwrist -14.9817
rhand -14.1722 -14.2793
rfingers 7.12502
rthumb 11.963 -43.9174
lclavicle -1.4661e-013 -2.94201e-014
lhumerus -42.8553 -18.5596 97.7423
lradius 56.7944
lwrist 46.3494
lhand -23.3396 -24.8347
lfingers 7.12502
lthumb 3.11517 5.1223
rfemur -13.2768 -5.36325 30.1686
rtibia 33.9937
rfoot -28.8759 10.4186
rtoes -16.0732
lfemur -44.5007 3.5066 13.2504
ltibia 39.7377
lfoot 23.5141 6.33567
ltoes 7.27534
506
root 18.0193 15.2175 33.6078 355.92 -127.269 -346.058
lowerback 2.04715 -0.408887 10.4565
upperback -5.2905 -0.099194 1.71102
thorax -6.77115 -0.641587 -4.02341
lowerneck 3.69781 -1.50526 -27.9365
upperneck 10.5452 -7.27556 35.1981
head 4.60064 -4.51098 18.0009
rclavicle 6.83788e-014 2.66371e-014
rhumerus -61.512 23.4047 -100.955
rradius 113.959
rwrist -15.6382
rhand -13.6426 -14.3441
rfingers 7.12502
rthumb 12.4737 -43.9519
lclavicle 6.83788e-014 2.66371e-014
lhumerus -43.0085 -18.5174 97.8916
lradius 57.0894
lwrist 46.3689
lhand -23.1251 -24.8285
lfingers 7.12502
lthumb 3.32234 5.12534
rfemur -13.4941 -5.04255 29.8916
rtibia 34.2407
rfoot -28.9995 10.7459
rtoes -15.9948
lfemur -43.9887 3.2483 13.4336
ltibia 39.5102
lfoot 24.0499 6.11758
ltoes 7.61278
507
root 18.0003 15.2141 33.6135 356.391 -127.953 -346.497
lowerback 1.93128 -0.54771 10.3962
upperback -5.30264 -0.305853 1.71406
thorax -6.74637 -0.740698 -3.97054
lowerneck 3.21892 -1.33179 -27.803
upperneck 10.8679 -6.94105 35.0513
head 4.64409 -4.29826 17.9155
rclavicle -9.51744e-014 -4.27884e-014
rhumerus -62.1781 23.0348 -100.491
rradius 114.709
rwrist -16.2735
rhand -13.1806 -14.4064
rfingers 7.12502
rthumb 12.9191 -43.9865
lclavicle -9.51744e-014 -4.27884e-014
lhumerus -43.1357 -18.4747 98.0516
lradius 57.3728
lwrist 46.4062
lhand -22.9416 -24.8347
lfingers 7.12502
lthumb 3.49945 5.11629
rfemur -13.692 -4.68816 29.6259
rtibia 34.5072
rfoot -29.1327 11.0507
rtoes -15.9327
lfemur -43.4385 3.11245 13.53
ltibia 39.3665
lfoot 24.4636 5.87174
ltoes 6.95141
508
root 17.9806 15.2093 33.6202 356.796 -128.643 -346.884
lowerback 1.83934 -0.688335 10.3566
upperback -5.29808 -0.510603 1.73167
thorax -6.7171 -0.838611 -3.91429
lowerneck 2.74254 -1.15863 -27.6798
upperneck 11.1604 -6.60063 34.9144
head 4.67902 -4.08291 17.8372
rclavicle 6.66239e-015 1.08835e-014
rhumerus -62.7985 22.6889 -99.9888
rradius 115.45
rwrist -16.8304
rhand -12.7954 -14.4903
rfingers 7.12502
rthumb 13.2905 -44.0466
lclavicle 6.66239e-015 1.08835e-014
lhumerus -43.2355 -18.4304 98.2232
lradius 57.6417
lwrist 46.4613
lhand -22.785 -24.8536
lfingers 7.12502
lthumb 3.65074 5.09484
rfemur -13.8728 -4.31609 29.3801
rtibia 34.7818
rfoot -29.2633 11.3334
rtoes -15.8698
lfemur -42.8724 3.08369 13.5476
ltibia 39.3099
lfoot 24.6659 5.65324
ltoes 5.00373
509
root 17.9601 15.2032 33.6282 357.129 -129.333 -347.203
lowerback 1.77561 -0.830704 10.3673
upperback -5.28307 -0.711613 1.75295
thorax -6.69365 -0.936993 -3.88234
lowerneck 2.27314 -0.987164 -27.5492
upperneck 11.4273 -6.26066 34.7877
head 4.7073 -3.86826 17.7616
rclavicle -1.00153e-014 -4.32357e-014
rhumerus -63.3995 22.3601 -99.503
rradius 116.181
rwrist -17.3669
rhand -12.6168 -14.5424
rfingers 7.12502
rthumb 13.4626 -44.0874
lclavicle -1.00153e-014 -4.32357e-014
lhumerus -43.3162 -18.4051 98.3965
lradius 57.8933
lwrist 46.5297
lhand -22.6626 -24.8734
lfingers 7.12502
lthumb 3.76892 5.07307
rfemur -14.0382 -3.92225 29.165
rtibia 35.054
rfoot -29.3844 11.5857
rtoes -15.8173
lfemur -42.3059 3.16702 13.4975
ltibia 39.3387
lfoot 24.6004 5.48552
ltoes 1.86707
510
root 17.9392 15.1963 33.6378 357.392 -130.008 -347.458
lowerback 1.72983 -0.984282 10.4013
upperback -5.24922 -0.924098 1.79952
thorax -6.66216 -1.04044 -3.83584
lowerneck 1.79193 -0.819102 -27.4401
upperneck 11.6758 -5.91663 34.6641
head 4.73387 -3.65083 17.6925
rclavicle 4.31448e-014 1.58407e-014
rhumerus -63.941 22.0711 -98.9696
rradius 116.89
rwrist -17.7962
rhand -12.4713 -14.5963
rfingers 7.12502
rthumb 13.6028 -44.1319
lclavicle 4.31448e-014 1.58407e-014
lhumerus -43.3543 -18.3663 98.5798
lradius 58.1226
lwrist 46.5956
lhand -22.5751 -24.8936
lfingers 7.12502
lthumb 3.85346 5.05126
rfemur -14.1855 -3.51877 28.9806
rtibia 35.316
rfoot -29.4895 11.8115
rtoes -15.7648
lfemur -41.7506 3.3308 13.3986
ltibia 39.4399
lfoot 24.2481 5.41873
ltoes -1.89463
511
root 17.9174 15.1889 33.6492 357.59 -130.673 -347.645
lowerback 1.70967 -1.14316 10.4896
upperback -5.20659 -1.13793 1.85261
thorax -6.63824 -1.14715 -3.81205
lowerneck 1.3144 -0.652433 -27.3365
upperneck 11.9059 -5.57385 34.5538
head 4.75704 -3.43479 17.6314
rclavicle 3.55289e-014 2.20589e-014
rhumerus -64.444 21.7928 -98.4203
rradius 117.575
rwrist -18.1145
rhand -12.3257 -14.6402
rfingers 7.12502
rthumb 13.7432 -44.1664
lclavicle 3.55289e-014 2.20589e-014
lhumerus -43.3739 -18.3452 98.7619
lradius 58.3334
lwrist 46.6494
lhand -22.5158 -24.9044
lfingers 7.12502
lthumb 3.91071 5.0395
rfemur -14.3156 -3.114 28.8281
rtibia 35.561
rfoot -29.5798 12.0236
rtoes -15.7236
lfemur -41.2117 3.54641 13.2778
ltibia 39.593
lfoot 23.659 5.44783
ltoes -5.75195
512
root 17.8944 15.1811 33.6619 357.731 -131.327 -347.774
lowerback 1.70784 -1.29476 10.6278
upperback -5.16258 -1.33755 1.90311
thorax -6.62387 -1.24986 -3.8192
lowerneck 0.888717 -0.483588 -27.218
upperneck 12.1019 -5.23782 34.456
head 4.76378 -3.22627 17.5713
rclavicle 2.10588e-015 2.95692e-015
rhumerus -64.9242 21.48 -97.8479
rradius 118.243
rwrist -18.3389
rhand -12.1242 -14.6837
rfingers 7.12502
rthumb 13.9373 -44.1965
lclavicle 2.10588e-015 2.95692e-015
lhumerus -43.3967 -18.3776 98.9574
lradius 58.5213
lwrist 46.6899
lhand -22.4831 -24.9153
lfingers 7.12502
lthumb 3.94226 5.028
rfemur -14.4245 -2.71355 28.7044
rtibia 35.7834
rfoot -29.6568 12.2316
rtoes -15.6948
lfemur -40.685 3.76844 13.1642
ltibia 39.7699
lfoot 22.9079 5.60881
ltoes -9.21263
513
root 17.8702 15.1735 33.6758 357.828 -131.973 -347.848
lowerback 1.72054 -1.44472 10.8072
upperback -5.11215 -1.53138 1.96214
thorax -6.61239 -1.3515 -3.84004
lowerneck 0.468472 -0.319405 -27.1065
upperneck 12.2806 -4.90701 34.3641
head 4.76822 -3.02092 17.5151
rclavicle -5.64642e-014 2.10215e-014
rhumerus -65.3735 21.1699 -97.2501
rradius 118.902
rwrist -18.5107
rhand -11.8875 -14.7198
rfingers 7.12502
rthumb 14.1654 -44.2169
lclavicle -5.64642e-014 2.10215e-014
lhumerus -43.402 -18.4367 99.1626
lradius 58.688
lwrist 46.7143
lhand -22.465 -24.9309
lfingers 7.12502
lthumb 3.95971 5.01203
rfemur -14.5205 -2.32669 28.6083
rtibia 35.9803
rfoot -29.7202 12.4478
rtoes -15.6777
lfemur -40.1734 3.9575 13.0841
ltibia 39.9426
lfoot 22.1122 5.91157
ltoes -11.9593
514
root 17.8447 15.1663 33.6909 357.901 -132.609 -347.891
lowerback 1.74683 -1.59317 11.016
upperback -5.05517 -1.72026 2.02534
thorax -6.60304 -1.45182 -3.87249
lowerneck 0.0373617 -0.164325 -27.0049
upperneck 12.4513 -4.58548 34.2758
head 4.77767 -2.81955 17.4629
rclavicle 3.95395e-015 -2.0276e-014
rhumerus -65.787 20.8625 -96.6242
rradius 119.551
rwrist -18.6339
rhand -11.6168 -14.7595
rfingers 7.12502
rthumb 14.4263 -44.2381
lclavicle 3.95395e-015 -2.0276e-014
lhumerus -43.3872 -18.5266 99.3763
lradius 58.8351
lwrist 46.7253
lhand -22.4551 -24.9564
lfingers 7.12502
lthumb 3.96932 4.98634
rfemur -14.6047 -1.9643 28.5245
rtibia 36.1509
rfoot -29.7737 12.6867
rtoes -15.655
lfemur -39.6725 4.07865 13.0384
ltibia 40.0888
lfoot 21.3257 6.37258
ltoes -14.294
515
root 17.8178 15.16 33.7067 357.971 -133.242 -347.922
lowerback 1.7753 -1.73512 11.2339
upperback -4.99108 -1.90003 2.09415
thorax -6.58697 -1.54729 -3.90458
lowerneck -0.39905 -0.0202176 -26.9129
upperneck 12.6098 -4.27508 34.1862
head 4.79035 -2.62334 17.4117
rclavicle 2.74633e-014 -9.83984e-015
rhumerus -66.1777 20.5657 -95.9839
rradius 120.197
rwrist -18.7257
rhand -11.3636 -14.7822
rfingers 7.12502
rthumb 14.6702 -44.2432
lclavicle 2.74633e-014 -9.83984e-015
lhumerus -43.3457 -18.6449 99.6039
lradius 58.9624
lwrist 46.7212
lhand -22.445 -24.9975
lfingers 7.12502
lthumb 3.97909 4.94509
rfemur -14.6844 -1.63018 28.44
rtibia 36.2974
rfoot -29.8259 12.9527
rtoes -15.6456
lfemur -39.1763 4.11181 13.0252
ltibia 40.198
lfoot 20.5826 6.99245
ltoes -16.397
516
root 17.7896 15.1547 33.7234 358.049 -133.871 -347.95
lowerback 1.79545 -1.86811 11.447
upperback -4.92025 -2.06969 2.16978
thorax -6.55737 -1.63639 -3.92782
lowerneck -0.826883 0.116655 -26.8276
upperneck 12.747 -3.97043 34.0916
head 4.79866 -2.43036 17.3582
rclavicle -5.40819e-014 2.52457e-014
rhumerus -66.5496 20.287 -95.3358
rradius 120.833
rwrist -18.7478
rhand -11.1754 -14.7854
rfingers 7.12502
rthumb 14.8515 -44.2331
lclavicle -5.40819e-014 2.52457e-014
lhumerus -43.2775 -18.7908 99.8466
lradius 59.0749
lwrist 46.7017
lhand -22.4194 -25.0461
lfingers 7.12502
lthumb 4.00378 4.89601
rfemur -14.7676 -1.33273 28.3463
rtibia 36.4236
rfoot -29.8783 13.2607
rtoes -15.6265
lfemur -38.6833 4.05815 13.036
ltibia 40.2725
lfoot 19.8555 7.81421
ltoes -18.1771
